<svg width="128" height="128" viewBox="0 0 128 128" fill="none" xmlns="http://www.w3.org/2000/svg">
<g clip-path="url(#clip0_30_2)">
<rect width="128" height="128" fill="#4C112D"/>
<path d="M32 94.1733V95.1733H33H48.8277H49.8277V94.1733V85.08V84.08H48.8277H44.288V43.92H48.8277H49.8277V42.92V33.8267V32.8267H48.8277H33H32V33.8267V42.92V43.92H33H37.5397V84.08H33H32V85.08V94.1733ZM53.315 94.1733V95.1733H54.315H58.7241H59.7241V94.1733V75.408C59.7241 72.4236 59.6863 69.2747 59.6108 65.9612C59.5765 64.4574 59.537 62.9648 59.4924 61.4836L60.4085 68.3483L60.5243 69.216H61.3997H65.6958H66.5747L66.6875 68.3444L67.5208 61.9098C67.481 63.3979 67.4439 64.886 67.4094 66.3742C67.3339 69.6321 67.2961 72.6435 67.2961 75.408V94.1733V95.1733H68.2961H72.7052H73.7052V94.1733V33.8267V32.8267H72.7052H67.1279H66.2526L66.1367 33.6942L63.5741 52.8729L63.5737 52.8762C63.5714 52.8932 63.5692 52.9103 63.567 52.9273C63.5641 52.9067 63.5611 52.8861 63.5581 52.8655C63.5581 52.8648 63.558 52.8642 63.5579 52.8635L60.8827 33.6885L60.7625 32.8267H59.8923H54.315H53.315V33.8267V94.1733ZM80.8704 93.5104L80.8797 93.521L80.8893 93.5314C82.3865 95.1426 84.1877 96 86.2571 96C88.3494 96 90.1457 95.1438 91.6001 93.5172L91.6001 93.5173L91.6061 93.5104C93.0431 91.8737 94.1171 89.6544 94.8713 86.9162L94.8726 86.9111C95.6298 84.1048 96 80.8445 96 77.144V62.0987V61.0987H95H85.5788H84.5788V62.0987V71.0267V72.0267H85.5788H89.2517V77.144C89.2517 79.8938 88.9041 81.9054 88.2866 83.2599L88.2865 83.2598L88.2811 83.2722C87.9857 83.9441 87.658 84.3701 87.3343 84.625C87.0258 84.8679 86.68 84.9893 86.2571 84.9893C85.4991 84.9893 84.7936 84.5841 84.1899 83.2599C83.5724 81.9054 83.2248 79.8938 83.2248 77.144V50.7733C83.2248 48.02 83.5735 46.0442 84.184 44.7527C84.7786 43.4952 85.4789 43.0933 86.2571 43.0933C86.6891 43.0933 87.0398 43.2136 87.3482 43.4477C87.6701 43.6922 87.9943 44.0989 88.2866 44.7401L88.2865 44.7402L88.2925 44.7527C88.9021 46.0424 89.2517 48.0441 89.2517 50.856V51.856H90.2517H95H96V50.856C96 47.1026 95.6302 43.8396 94.8712 41.0838C94.1188 38.3516 93.0457 36.1553 91.6031 34.5687C90.1551 32.8921 88.359 32 86.2571 32C84.1753 32 82.3718 32.8958 80.8796 34.5618C79.4339 36.149 78.3588 38.3477 77.6053 41.0838L77.6052 41.0838L77.6029 41.0923C76.871 43.8449 76.5142 47.1048 76.5142 50.856V77.144C76.5142 80.8422 76.8714 84.0995 77.6017 86.9027L77.6016 86.9028L77.6053 86.9162C78.3594 89.6544 79.4334 91.8737 80.8704 93.5104Z" fill="#CFDFB6" stroke="black" stroke-width="2"/>
<path d="M64 0V28.4444M64 99.5556V128M0 64H14.2222M28.4444 64H14.2222M99.5556 64H128M14.2222 64C14.2222 91.4916 36.5085 113.778 64 113.778C91.4916 113.778 113.778 91.4916 113.778 64C113.778 36.5085 91.4916 14.2222 64 14.2222C36.5085 14.2222 14.2222 36.5085 14.2222 64Z" stroke="#B3CB20" stroke-width="4" stroke-linecap="round" stroke-linejoin="round"/>
</g>
<defs>
<clipPath id="clip0_30_2">
<rect width="128" height="128" fill="white"/>
</clipPath>
</defs>
</svg>
